<svg width="24" height="24" viewBox="0 0 24 24" version="1.1" xmlns="http://www.w3.org/2000/svg" xmlns:xlink="http://www.w3.org/1999/xlink">
<title>account_child</title>
<desc>Created using Figma</desc>
<g id="Canvas" transform="translate(-15099 -2488)">
<g id="Icons/Red/account_child">
<g id="Icons/Dark/account_child">
<g id="Shape">
<use xlink:href="#path0_fill" transform="translate(15101 2493)" fill="#FF6A6A"/>
</g>
</g>
</g>
</g>
<defs>
<path id="path0_fill" fill-rule="evenodd" d="M 14.5 7C 15.88 7 16.99 5.88 16.99 4.5C 16.99 3.12 15.88 2 14.5 2C 13.12 2 12 3.12 12 4.5C 12 5.88 13.12 7 14.5 7ZM 7 6C 8.66 6 9.99 4.66 9.99 3C 9.99 1.34 8.66 0 7 0C 5.34 0 4 1.34 4 3C 4 4.66 5.34 6 7 6ZM 14.5 9C 12.67 9 9 9.92 9 11.75L 9 14L 20 14L 20 11.75C 20 9.92 16.33 9 14.5 9ZM 7 8C 4.67 8 0 9.17 0 11.5L 0 14L 7 14L 7 11.75C 7 10.9 7.33 9.41 9.37 8.28C 8.5 8.1 7.66 8 7 8Z"/>
</defs>
</svg>
