<svg width="24" height="24" viewBox="0 0 24 24" version="1.1" xmlns="http://www.w3.org/2000/svg" xmlns:xlink="http://www.w3.org/1999/xlink">
<title>alarm</title>
<desc>Created using Figma</desc>
<g id="Canvas" transform="translate(-15231 -2488)">
<g id="Icons/Red/alarm">
<g id="Icons/Dark/alarm">
<g id="Shape">
<use xlink:href="#path0_fill" transform="translate(15233 2489.86)" fill="#FF6A6A"/>
</g>
</g>
</g>
</g>
<defs>
<path id="path0_fill" fill-rule="evenodd" d="M 19.9999 3.86L 15.3999 0L 14.1099 1.53L 18.7099 5.39L 19.9999 3.86ZM 5.88 1.53L 4.6 0L 0 3.85L 1.29 5.38L 5.88 1.53ZM 10.5 6.14001L 9 6.14001L 9 12.14L 13.75 14.99L 14.5 13.76L 10.5 11.39L 10.5 6.14001ZM 10 2.14001C 5.03 2.14001 1 6.17001 1 11.14C 1 16.11 5.02 20.14 10 20.14C 14.97 20.14 19 16.11 19 11.14C 19 6.17001 14.97 2.14001 10 2.14001ZM 10 18.14C 6.13 18.14 3 15.01 3 11.14C 3 7.27001 6.13 4.14001 10 4.14001C 13.87 4.14001 17 7.27001 17 11.14C 17 15.01 13.87 18.14 10 18.14Z"/>
</defs>
</svg>
