<svg width="24" height="24" viewBox="0 0 24 24" version="1.1" xmlns="http://www.w3.org/2000/svg" xmlns:xlink="http://www.w3.org/1999/xlink">
<title>call_end</title>
<desc>Created using Figma</desc>
<g id="Canvas" transform="translate(-14923 -2664)">
<g id="Icons/Red/call_end">
<g id="Icons/Dark/call_end">
<g id="Shape">
<use xlink:href="#path0_fill" transform="translate(14923 2671)" fill="#FF6A6A"/>
</g>
</g>
</g>
</g>
<defs>
<path id="path0_fill" fill-rule="evenodd" d="M 12 2C 10.4 2 8.85 2.25 7.4 2.72L 7.4 5.82C 7.4 6.21 7.17 6.56 6.84 6.72C 5.86 7.21 4.97 7.84 4.18 8.57C 4 8.75 3.75 8.85 3.48 8.85C 3.2 8.85 2.95 8.74 2.77 8.56L 0.29 6.08C 0.11 5.91 0 5.66 0 5.38C 0 5.1 0.11 4.85 0.29 4.67C 3.34 1.78 7.46 0 12 0C 16.54 0 20.66 1.78 23.71 4.67C 23.89 4.85 24 5.1 24 5.38C 24 5.66 23.89 5.91 23.71 6.09L 21.23 8.57C 21.05 8.75 20.8 8.86 20.52 8.86C 20.25 8.86 20 8.75 19.82 8.58C 19.03 7.84 18.13 7.22 17.15 6.73C 16.82 6.57 16.59 6.23 16.59 5.83L 16.59 2.73C 15.15 2.25 13.6 2 12 2Z"/>
</defs>
</svg>
