<svg width="24" height="24" viewBox="0 0 24 24" version="1.1" xmlns="http://www.w3.org/2000/svg" xmlns:xlink="http://www.w3.org/1999/xlink">
<title>favorite_outline</title>
<desc>Created using Figma</desc>
<g id="Canvas" transform="translate(-15275 -2532)">
<g id="Icons/Red/favorite_outline">
<g id="Icons/Dark/favorite_outline">
<g id="Shape">
<use xlink:href="#path0_fill" transform="translate(15277 2535)" fill="#FF6A6A"/>
</g>
</g>
</g>
</g>
<defs>
<path id="path0_fill" fill-rule="evenodd" d="M 14.5 0C 12.76 0 11.09 0.81 10 2.09C 8.91 0.81 7.24 0 5.5 0C 2.42 0 0 2.42 0 5.5C 0 9.28 3.4 12.36 8.55 17.04L 10 18.35L 11.45 17.03C 16.6 12.36 20 9.28 20 5.5C 20 2.42 17.58 0 14.5 0ZM 10.1 15.55L 10 15.65L 9.9 15.55C 5.14 11.24 2 8.39 2 5.5C 2 3.5 3.5 2 5.5 2C 7.04 2 8.54 2.99 9.07 4.36L 10.94 4.36C 11.46 2.99 12.96 2 14.5 2C 16.5 2 18 3.5 18 5.5C 18 8.39 14.86 11.24 10.1 15.55Z"/>
</defs>
</svg>
