<svg width="24" height="24" viewBox="0 0 24 24" version="1.1" xmlns="http://www.w3.org/2000/svg" xmlns:xlink="http://www.w3.org/1999/xlink">
<title>help</title>
<desc>Created using Figma</desc>
<g id="Canvas" transform="translate(-14967 -2576)">
<g id="Icons/Red/help">
<g id="Icons/Dark/help">
<g id="Shape">
<use xlink:href="#path0_fill" transform="translate(14969 2578)" fill="#FF6A6A"/>
</g>
</g>
</g>
</g>
<defs>
<path id="path0_fill" fill-rule="evenodd" d="M 10 0C 4.48 0 0 4.48 0 10C 0 15.52 4.48 20 10 20C 15.52 20 20 15.52 20 10C 20 4.48 15.52 0 10 0ZM 11 17L 9 17L 9 15L 11 15L 11 17ZM 13.07 9.25L 12.17 10.17C 11.45 10.9 11 11.5 11 13L 9 13L 9 12.5C 9 11.4 9.45 10.4 10.17 9.67L 11.41 8.41C 11.78 8.05 12 7.55 12 7C 12 5.9 11.1 5 10 5C 8.9 5 8 5.9 8 7L 6 7C 6 4.79 7.79 3 10 3C 12.21 3 14 4.79 14 7C 14 7.88 13.64 8.68 13.07 9.25Z"/>
</defs>
</svg>
