<svg width="24" height="24" viewBox="0 0 24 24" version="1.1" xmlns="http://www.w3.org/2000/svg" xmlns:xlink="http://www.w3.org/1999/xlink">
<title>highlight_remove</title>
<desc>Created using Figma</desc>
<g id="Canvas" transform="translate(-15011 -2576)">
<g id="Icons/Red/highlight_remove">
<g id="Icons/Dark/highlight_remove">
<g id="Shape">
<use xlink:href="#path0_fill" transform="translate(15013 2578)" fill="#FF6A6A"/>
</g>
</g>
</g>
</g>
<defs>
<path id="path0_fill" fill-rule="evenodd" d="M 12.59 6L 10 8.59L 7.41 6L 6 7.41L 8.59 10L 6 12.59L 7.41 14L 10 11.41L 12.59 14L 14 12.59L 11.41 10L 14 7.41L 12.59 6ZM 10 0C 4.47 0 0 4.47 0 10C 0 15.53 4.47 20 10 20C 15.53 20 20 15.53 20 10C 20 4.47 15.53 0 10 0ZM 10 18C 5.59 18 2 14.41 2 10C 2 5.59 5.59 2 10 2C 14.41 2 18 5.59 18 10C 18 14.41 14.41 18 10 18Z"/>
</defs>
</svg>
