<svg width="24" height="24" viewBox="0 0 24 24" version="1.1" xmlns="http://www.w3.org/2000/svg" xmlns:xlink="http://www.w3.org/1999/xlink">
<title>link</title>
<desc>Created using Figma</desc>
<g id="Canvas" transform="translate(-14923 -2708)">
<g id="Icons/Red/link">
<g id="Icons/Dark/link">
<g id="Shape">
<use xlink:href="#path0_fill" transform="translate(14925 2715)" fill="#FF6A6A"/>
</g>
</g>
</g>
</g>
<defs>
<path id="path0_fill" fill-rule="evenodd" d="M 1.9 5C 1.9 3.29 3.29 1.9 5 1.9L 9 1.9L 9 0L 5 0C 2.24 0 0 2.24 0 5C 0 7.76 2.24 10 5 10L 9 10L 9 8.1L 5 8.1C 3.29 8.1 1.9 6.71 1.9 5ZM 6 6L 14 6L 14 4L 6 4L 6 6ZM 15 0L 11 0L 11 1.9L 15 1.9C 16.71 1.9 18.1 3.29 18.1 5C 18.1 6.71 16.71 8.1 15 8.1L 11 8.1L 11 10L 15 10C 17.76 10 20 7.76 20 5C 20 2.24 17.76 0 15 0Z"/>
</defs>
</svg>
