<svg width="24" height="24" viewBox="0 0 24 24" version="1.1" xmlns="http://www.w3.org/2000/svg" xmlns:xlink="http://www.w3.org/1999/xlink">
<title>lock_open</title>
<desc>Created using Figma</desc>
<g id="Canvas" transform="translate(-15319 -2576)">
<g id="Icons/Red/lock_open">
<g id="Icons/Dark/lock_open">
<g id="Shape">
<use xlink:href="#path0_fill" transform="translate(15323 2577)" fill="#FF6A6A"/>
</g>
</g>
</g>
</g>
<defs>
<path id="path0_fill" fill-rule="evenodd" d="M 8 16C 9.1 16 10 15.1 10 14C 10 12.9 9.1 12 8 12C 6.9 12 6 12.9 6 14C 6 15.1 6.9 16 8 16ZM 14 7L 13 7L 13 5C 13 2.24 10.76 0 8 0C 5.24 0 3 2.24 3 5L 4.9 5C 4.9 3.29 6.29 1.9 8 1.9C 9.71 1.9 11.1 3.29 11.1 5L 11.1 7L 2 7C 0.9 7 0 7.9 0 9L 0 19C 0 20.1 0.9 21 2 21L 14 21C 15.1 21 16 20.1 16 19L 16 9C 16 7.9 15.1 7 14 7ZM 14 19L 2 19L 2 9L 14 9L 14 19Z"/>
</defs>
</svg>
