<svg width="24" height="24" viewBox="0 0 24 24" version="1.1" xmlns="http://www.w3.org/2000/svg" xmlns:xlink="http://www.w3.org/1999/xlink">
<title>query_builder</title>
<desc>Created using Figma</desc>
<g id="Canvas" transform="translate(-15055 -2620)">
<g id="Icons/Red/query_builder">
<g id="Icons/Dark/query_builder">
<g id="Shape">
<use xlink:href="#path0_fill" transform="translate(15057 2622)" fill="#FF6A6A"/>
</g>
<g id="Shape">
<use xlink:href="#path1_fill" transform="translate(15066 2627)" fill="#FF6A6A"/>
</g>
</g>
</g>
</g>
<defs>
<path id="path0_fill" fill-rule="evenodd" d="M 9.99 0C 4.47 0 0 4.48 0 10C 0 15.52 4.47 20 9.99 20C 15.52 20 20 15.52 20 10C 20 4.48 15.52 0 9.99 0ZM 10 18C 5.58 18 2 14.42 2 10C 2 5.58 5.58 2 10 2C 14.42 2 18 5.58 18 10C 18 14.42 14.42 18 10 18Z"/>
<path id="path1_fill" fill-rule="evenodd" d="M 1.5 0L 0 0L 0 6L 5.25 9.15L 6 7.92L 1.5 5.25L 1.5 0Z"/>
</defs>
</svg>
