<svg width="25" height="24" viewBox="0 0 25 24" version="1.1" xmlns="http://www.w3.org/2000/svg" xmlns:xlink="http://www.w3.org/1999/xlink">
<title>spanner</title>
<desc>Created using Figma</desc>
<g id="Canvas" transform="translate(-15320 -2840)">
<g id="Icons/Red/spanner">
<g id="Icons/White/spanner">
<g id="Support">
<use xlink:href="#path0_fill" transform="translate(15323 2842)" fill="#FF6A6A"/>
</g>
</g>
</g>
</g>
<defs>
<path id="path0_fill" fill-rule="evenodd" d="M 3.90253 0.197748L 8.00848 4.29003C 8.00848 4.29003 8.00848 5.48786 6.80693 6.78583C 5.50492 7.98367 4.30337 7.98367 4.30337 7.98367L 0.198384 3.89043C -0.402393 6.18691 0.398322 8.98122 2.1002 10.6788C 4.70325 13.2738 7.90803 10.9782 8.6083 11.6773C 12.213 15.2708 15.1164 18.9644 15.3173 19.1638C 16.4184 20.2615 18.2207 20.2615 19.2223 19.2639C 20.3234 18.1662 20.224 16.4686 19.1219 15.3709C 19.0214 15.2708 15.1164 12.177 11.5117 8.58354C 10.8105 7.88448 13.3141 4.79072 10.6106 2.0956C 9.00914 0.397068 6.20615 -0.401168 3.90253 0.197748ZM 18.2215 16.9674C 18.2215 17.6665 17.7211 18.1653 17.0199 18.1653C 16.3187 18.1653 15.8184 17.6665 15.8184 16.9674C 15.8184 16.2684 16.3187 15.7696 17.0199 15.7696C 17.7211 15.7696 18.2215 16.2684 18.2215 16.9674Z"/>
</defs>
</svg>
