<svg width="24" height="24" viewBox="0 0 24 24" version="1.1" xmlns="http://www.w3.org/2000/svg" xmlns:xlink="http://www.w3.org/1999/xlink">
<title>account_circle</title>
<desc>Created using Figma</desc>
<g id="Canvas" transform="translate(-13063 -2488)">
<g id="Icons/Dark Grey/account_circle">
<g id="Icons/Dark/account_circle">
<g id="Shape">
<use xlink:href="#path0_fill" transform="translate(13065 2490)" fill="#818E96"/>
</g>
</g>
</g>
</g>
<defs>
<path id="path0_fill" fill-rule="evenodd" d="M 10 0C 4.48 0 0 4.48 0 10C 0 15.52 4.48 20 10 20C 15.52 20 20 15.52 20 10C 20 4.48 15.52 0 10 0ZM 10 3C 11.66 3 13 4.34 13 6C 13 7.66 11.66 9 10 9C 8.34 9 7 7.66 7 6C 7 4.34 8.34 3 10 3ZM 10 17.2C 7.5 17.2 5.29 15.92 4 13.98C 4.03 11.99 8 10.9 10 10.9C 11.99 10.9 15.97 11.99 16 13.98C 14.71 15.92 12.5 17.2 10 17.2Z"/>
</defs>
</svg>
