<svg width="24" height="24" viewBox="0 0 24 24" version="1.1" xmlns="http://www.w3.org/2000/svg" xmlns:xlink="http://www.w3.org/1999/xlink">
<title>add_shopping_cart</title>
<desc>Created using Figma</desc>
<g id="Canvas" transform="translate(-13107 -2488)">
<g id="Icons/Dark Grey/add_shopping_cart">
<g id="Icons/Dark/add_shopping_cart">
<g id="Shape">
<use xlink:href="#path0_fill" transform="translate(13108 2489)" fill="#818E96"/>
</g>
</g>
</g>
</g>
<defs>
<path id="path0_fill" fill-rule="evenodd" d="M 10 8L 12 8L 12 5L 15 5L 15 3L 12 3L 12 0L 10 0L 10 3L 7 3L 7 5L 10 5L 10 8ZM 5.99977 17C 4.89977 17 4.00977 17.9 4.00977 19C 4.00977 20.1 4.89977 21 5.99977 21C 7.09977 21 7.99977 20.1 7.99977 19C 7.99977 17.9 7.09977 17 5.99977 17ZM 15.9998 17C 14.8998 17 14.0098 17.9 14.0098 19C 14.0098 20.1 14.8998 21 15.9998 21C 17.0998 21 17.9998 20.1 17.9998 19C 17.9998 17.9 17.0998 17 15.9998 17ZM 6.17 13.75L 6.2 13.63L 7.1 12L 14.55 12C 15.3 12 15.96 11.59 16.3 10.97L 20.16 3.96L 18.42 3L 18.41 3L 17.31 5L 14.55 10L 7.53 10L 7.4 9.73L 5.16 5L 4.21 3L 3.27 1L 0 1L 0 3L 2 3L 5.6 10.59L 4.25 13.04C 4.09 13.32 4 13.65 4 14C 4 15.1 4.9 16 6 16L 18 16L 18 14L 6.42 14C 6.29 14 6.17 13.89 6.17 13.75Z"/>
</defs>
</svg>
