<svg width="24" height="24" viewBox="0 0 24 24" version="1.1" xmlns="http://www.w3.org/2000/svg" xmlns:xlink="http://www.w3.org/1999/xlink">
<title>autorenew</title>
<desc>Created using Figma</desc>
<g id="Canvas" transform="translate(-13195 -2488)">
<g id="Icons/Dark Grey/autorenew">
<g id="Icons/Dark/autorenew">
<g id="Shape">
<use xlink:href="#path0_fill" transform="translate(13199 2489)" fill="#818E96"/>
</g>
</g>
</g>
</g>
<defs>
<path id="path0_fill" fill-rule="evenodd" d="M 8 5L 8 8L 12 4L 8 0L 8 3C 3.58 3 0 6.58 0 11C 0 12.57 0.46 14.03 1.24 15.26L 2.7 13.8C 2.25 12.97 2 12.01 2 11C 2 7.69 4.69 5 8 5ZM 14.76 6.73999L 13.3 8.19999C 13.74 9.03999 14 9.98999 14 11C 14 14.31 11.31 17 8 17L 8 14L 4 18L 8 22L 8 19C 12.42 19 16 15.42 16 11C 16 9.42999 15.54 7.96999 14.76 6.73999Z"/>
</defs>
</svg>
