<svg width="24" height="24" viewBox="0 0 24 24" version="1.1" xmlns="http://www.w3.org/2000/svg" xmlns:xlink="http://www.w3.org/1999/xlink">
<title>forum</title>
<desc>Created using Figma</desc>
<g id="Canvas" transform="translate(-12887 -2664)">
<g id="Icons/Dark Grey/forum">
<g id="Icons/Dark/forum">
<g id="Shape">
<use xlink:href="#path0_fill" transform="translate(12889 2666)" fill="#818E96"/>
</g>
</g>
</g>
</g>
<defs>
<path id="path0_fill" fill-rule="evenodd" d="M 19 4L 17 4L 17 13L 4 13L 4 15C 4 15.55 4.45 16 5 16L 16 16L 20 20L 20 5C 20 4.45 19.55 4 19 4ZM 15 10L 15 1C 15 0.45 14.55 0 14 0L 1 0C 0.45 0 0 0.45 0 1L 0 15L 4 11L 14 11C 14.55 11 15 10.55 15 10Z"/>
</defs>
</svg>
