<svg width="24" height="24" viewBox="0 0 24 24" version="1.1" xmlns="http://www.w3.org/2000/svg" xmlns:xlink="http://www.w3.org/1999/xlink">
<title>message</title>
<desc>Created using Figma</desc>
<g id="Canvas" transform="translate(-12975 -2664)">
<g id="Icons/Dark Grey/message">
<g id="Icons/Dark/message">
<g id="Shape">
<use xlink:href="#path0_fill" transform="translate(12977 2666)" fill="#818E96"/>
</g>
</g>
</g>
</g>
<defs>
<path id="path0_fill" fill-rule="evenodd" d="M 18 0L 2 0C 0.9 0 0.01 0.9 0.01 2L 0 20L 4 16L 18 16C 19.1 16 20 15.1 20 14L 20 2C 20 0.9 19.1 0 18 0ZM 16 12L 4 12L 4 10L 16 10L 16 12ZM 16 9L 4 9L 4 7L 16 7L 16 9ZM 16 6L 4 6L 4 4L 16 4L 16 6Z"/>
</defs>
</svg>
