<svg width="24" height="24" viewBox="0 0 24 24" version="1.1" xmlns="http://www.w3.org/2000/svg" xmlns:xlink="http://www.w3.org/1999/xlink">
<title>remove_circle_outline</title>
<desc>Created using Figma</desc>
<g id="Canvas" transform="translate(-13063 -2708)">
<g id="Icons/Dark Grey/remove_circle_outline">
<g id="Icons/Dark/remove_circle_outline">
<g id="Shape">
<use xlink:href="#path0_fill" transform="translate(13065 2710)" fill="#818E96"/>
</g>
</g>
</g>
</g>
<defs>
<path id="path0_fill" fill-rule="evenodd" d="M 5 9L 5 11L 15 11L 15 9L 5 9ZM 10 0C 4.48 0 0 4.48 0 10C 0 15.52 4.48 20 10 20C 15.52 20 20 15.52 20 10C 20 4.48 15.52 0 10 0ZM 10 18C 5.59 18 2 14.41 2 10C 2 5.59 5.59 2 10 2C 14.41 2 18 5.59 18 10C 18 14.41 14.41 18 10 18Z"/>
</defs>
</svg>
