<svg width="24" height="24" viewBox="0 0 24 24" version="1.1" xmlns="http://www.w3.org/2000/svg" xmlns:xlink="http://www.w3.org/1999/xlink">
<title>power</title>
<desc>Created using Figma</desc>
<g id="Canvas" transform="translate(-12843 -2884)">
<g id="Icons/power">
<g id="Icon">
<use xlink:href="#path0_fill" transform="translate(12846 2887)" fill="#818E96"/>
</g>
</g>
</g>
<defs>
<path id="path0_fill" fill-rule="evenodd" d="M 10 0L 8 0L 8 10L 10 10L 10 0ZM 14.83 2.17L 13.41 3.59C 14.99 4.86 16 6.81 16 9C 16 12.87 12.87 16 9 16C 5.13 16 2 12.87 2 9C 2 6.81 3.01 4.86 4.58 3.58L 3.17 2.17C 1.23 3.82 0 6.26 0 9C 0 13.97 4.03 18 9 18C 13.97 18 18 13.97 18 9C 18 6.26 16.77 3.82 14.83 2.17Z"/>
</defs>
</svg>
