<svg width="24" height="24" viewBox="0 0 24 24" version="1.1" xmlns="http://www.w3.org/2000/svg" xmlns:xlink="http://www.w3.org/1999/xlink">
<title>event</title>
<desc>Created using Figma</desc>
<g id="Canvas" transform="translate(-14623 -2532)">
<g id="Icons/Green/event">
<g id="Icons/Dark/event">
<g id="Shape">
<use xlink:href="#path0_fill" transform="translate(14626 2533)" fill="#19CCA8"/>
</g>
</g>
</g>
</g>
<defs>
<path id="path0_fill" fill-rule="evenodd" d="M 14 11L 9 11L 9 16L 14 16L 14 11ZM 13 0L 13 2L 5 2L 5 0L 3 0L 3 2L 2 2C 0.89 2 0.01 2.9 0.01 4L 0 18C 0 19.1 0.89 20 2 20L 16 20C 17.1 20 18 19.1 18 18L 18 4C 18 2.9 17.1 2 16 2L 15 2L 15 0L 13 0ZM 16 18L 2 18L 2 7L 16 7L 16 18Z"/>
</defs>
</svg>
