<svg width="24" height="24" viewBox="0 0 24 24" version="1.1" xmlns="http://www.w3.org/2000/svg" xmlns:xlink="http://www.w3.org/1999/xlink">
<title>fullscreen_exit</title>
<desc>Created using Figma</desc>
<g id="Canvas" transform="translate(-14491 -2796)">
<g id="Icons/Green/fullscreen_exit">
<g id="Icons/Dark/fullscreen_exit">
<g id="Shape">
<use xlink:href="#path0_fill" transform="translate(14496 2801)" fill="#19CCA8"/>
</g>
</g>
</g>
</g>
<defs>
<path id="path0_fill" fill-rule="evenodd" d="M 0 11L 3 11L 3 14L 5 14L 5 9L 0 9L 0 11ZM 3 3L 0 3L 0 5L 5 5L 5 0L 3 0L 3 3ZM 9 14L 11 14L 11 11L 14 11L 14 9L 9 9L 9 14ZM 11 3L 11 0L 9 0L 9 5L 14 5L 14 3L 11 3Z"/>
</defs>
</svg>
