<svg width="24" height="24" viewBox="0 0 24 24" version="1.1" xmlns="http://www.w3.org/2000/svg" xmlns:xlink="http://www.w3.org/1999/xlink">
<title>add_box</title>
<desc>Created using Figma</desc>
<g id="Canvas" transform="translate(-15707 -2664)">
<g id="Icons/Yellow/add_box">
<g id="Icons/Dark/add_box">
<g id="Shape">
<use xlink:href="#path0_fill" transform="translate(15710 2667)" fill="#F0AD4E"/>
</g>
</g>
</g>
</g>
<defs>
<path id="path0_fill" fill-rule="evenodd" d="M 16 0L 2 0C 0.89 0 0 0.9 0 2L 0 16C 0 17.1 0.89 18 2 18L 16 18C 17.1 18 18 17.1 18 16L 18 2C 18 0.9 17.1 0 16 0ZM 14 10L 10 10L 10 14L 8 14L 8 10L 4 10L 4 8L 8 8L 8 4L 10 4L 10 8L 14 8L 14 10Z"/>
</defs>
</svg>
