<svg width="24" height="24" viewBox="0 0 24 24" version="1.1" xmlns="http://www.w3.org/2000/svg" xmlns:xlink="http://www.w3.org/1999/xlink">
<title>perm_identity</title>
<desc>Created using Figma</desc>
<g id="Canvas" transform="translate(-15487 -2620)">
<g id="Icons/Yellow/perm_identity">
<g id="Icons/Dark/perm_identity">
<g id="Shape">
<use xlink:href="#path0_fill" transform="translate(15491 2624)" fill="#F0AD4E"/>
</g>
</g>
</g>
</g>
<defs>
<path id="path0_fill" fill-rule="evenodd" d="M 8.00039 1.90002C 9.16039 1.90002 10.1004 2.84002 10.1004 4.00002C 10.1004 5.16002 9.16039 6.10002 8.00039 6.10002C 6.84039 6.10002 5.90039 5.16002 5.90039 4.00002C 5.90039 2.84002 6.84039 1.90002 8.00039 1.90002ZM 8.00039 10.9C 10.9704 10.9 14.1004 12.36 14.1004 13L 14.1004 14.1L 1.90039 14.1L 1.90039 13C 1.90039 12.36 5.03039 10.9 8.00039 10.9ZM 8 0C 5.79 0 4 1.79 4 4C 4 6.21 5.79 8 8 8C 10.21 8 12 6.21 12 4C 12 1.79 10.21 0 8 0ZM 8 9C 5.33 9 0 10.34 0 13L 0 16L 16 16L 16 13C 16 10.34 10.67 9 8 9Z"/>
</defs>
</svg>
