<svg width="24" height="24" viewBox="0 0 24 24" version="1.1" xmlns="http://www.w3.org/2000/svg" xmlns:xlink="http://www.w3.org/1999/xlink">
<title>radio_button_on</title>
<desc>Created using Figma</desc>
<g id="Canvas" transform="translate(-15531 -2840)">
<g id="Icons/Yellow/radio_button_on">
<g id="Icons/Dark/radio_button_on">
<g id="Shape">
<use xlink:href="#path0_fill" transform="translate(15533 2842)" fill="#F0AD4E"/>
</g>
</g>
</g>
</g>
<defs>
<path id="path0_fill" fill-rule="evenodd" d="M 10 5C 7.24 5 5 7.24 5 10C 5 12.76 7.24 15 10 15C 12.76 15 15 12.76 15 10C 15 7.24 12.76 5 10 5ZM 10 0C 4.48 0 0 4.48 0 10C 0 15.52 4.48 20 10 20C 15.52 20 20 15.52 20 10C 20 4.48 15.52 0 10 0ZM 10 18C 5.58 18 2 14.42 2 10C 2 5.58 5.58 2 10 2C 14.42 2 18 5.58 18 10C 18 14.42 14.42 18 10 18Z"/>
</defs>
</svg>
