<svg width="24" height="24" viewBox="0 0 24 24" version="1.1" xmlns="http://www.w3.org/2000/svg" xmlns:xlink="http://www.w3.org/1999/xlink">
<title>temperature</title>
<desc>Created using Figma</desc>
<g id="Canvas" transform="translate(-15757 -2840)">
<g id="Icons/Yellow/temperature">
<g id="Icons/White/temperature">
<g id="Temperature">
<g id="Fill 1">
<use xlink:href="#path0_fill" transform="translate(15765.5 2853.49)" fill="#F0AD4E"/>
</g>
<g id="Stroke 2">
<use xlink:href="#path1_stroke" transform="translate(15763 2841.04)" fill="#F0AD4E"/>
</g>
<g id="Fill 4">
<use xlink:href="#path2_fill" transform="translate(15768 2845.03)" fill="#F0AD4E"/>
</g>
<g id="Stroke 5">
<use xlink:href="#path3_stroke" transform="translate(15771 2846.02)" fill="#F0AD4E"/>
</g>
</g>
</g>
</g>
</g>
<defs>
<path id="path0_fill" fill-rule="evenodd" d="M 6.974 3.487C 6.974 5.4132 5.4132 6.97496 3.487 6.97496C 1.5608 6.97496 0 5.4132 0 3.487C 0 1.5608 1.5608 0 3.487 0C 5.4132 0 6.974 1.5608 6.974 3.487Z"/>
<path id="path1_stroke" d="M 8.96739 10.7609L 7.96739 10.7609L 7.96739 11.3495L 8.48199 11.6352L 8.96739 10.7609ZM 2.98913 10.7609L 3.47489 11.635L 3.98913 11.3492L 3.98913 10.7609L 2.98913 10.7609ZM 9.96739 10.7609C 9.96739 8.17061 9.96739 3.58696 9.96739 2.98913L 7.96739 2.98913C 7.96739 3.58696 7.96739 8.17061 7.96739 10.7609L 9.96739 10.7609ZM 9.96739 2.98913C 9.96739 0.743324 8.22407 -1 5.97826 -1L 5.97826 1C 7.1195 1 7.96739 1.84789 7.96739 2.98913L 9.96739 2.98913ZM 5.97826 -1C 3.73267 -1 1.98913 0.742157 1.98913 2.98913L 3.98913 2.98913C 3.98913 1.84715 4.83681 1 5.97826 1L 5.97826 -1ZM 1.98913 2.98913C 1.98913 3.58696 1.98913 8.26961 1.98913 10.7609L 3.98913 10.7609C 3.98913 8.26961 3.98913 3.58696 3.98913 2.98913L 1.98913 2.98913ZM 2.50337 9.88678C 0.387496 11.0626 -1 13.3926 -1 15.9423L 1 15.9423C 1 14.1074 2.00381 12.4525 3.47489 11.635L 2.50337 9.88678ZM -1 15.9423C -1 19.7827 2.13793 22.9206 5.97826 22.9206L 5.97826 20.9206C 3.2425 20.9206 1 18.6781 1 15.9423L -1 15.9423ZM 5.97826 22.9206C 9.81859 22.9206 12.9565 19.7827 12.9565 15.9423L 10.9565 15.9423C 10.9565 18.6781 8.71402 20.9206 5.97826 20.9206L 5.97826 22.9206ZM 12.9565 15.9423C 12.9565 13.3929 11.5692 11.0616 9.4528 9.88658L 8.48199 11.6352C 9.95252 12.4516 10.9565 14.1071 10.9565 15.9423L 12.9565 15.9423Z"/>
<path id="path2_fill" fill-rule="evenodd" d="M 0 12.9532L 1.99243 12.9532L 1.99243 0L 0 0L 0 12.9532Z"/>
<path id="path3_stroke" d="M 0 1L 3.98583 1L 3.98583 -1L 0 -1L 0 1ZM 0 3.98914L 3.98583 3.98914L 3.98583 1.98914L 0 1.98914L 0 3.98914Z"/>
</defs>
</svg>
