<svg width="24" height="24" viewBox="0 0 24 24" version="1.1" xmlns="http://www.w3.org/2000/svg" xmlns:xlink="http://www.w3.org/1999/xlink">
<title>faucet</title>
<desc>Created using Figma</desc>
<g id="Canvas" transform="translate(-12931 -2884)">
<g id="Icons/Grey/faucet">
<g id="Vector">
<use xlink:href="#path0_fill" transform="translate(12933.1 2888)" fill="#818E96"/>
</g>
</g>
</g>
<defs>
<path id="path0_fill" d="M 4.18327 0C 3.02764 0 2.09163 0.895 2.09163 2C 2.09163 3.105 3.02764 4 4.18327 4C 4.95508 4 5.61787 3.595 5.98076 3L 8.36653 3L 10.4582 3L 12.8439 3C 13.2068 3.595 13.8696 4 14.6414 4C 15.7971 4 16.7331 3.105 16.7331 2C 16.7331 0.895 15.7971 0 14.6414 0C 13.8696 0 13.2068 0.405 12.8439 1L 10.4582 1C 10.4582 0.448 9.98964 0 9.41235 0C 8.83506 0 8.36653 0.448 8.36653 1L 5.98076 1C 5.61787 0.405 4.95508 0 4.18327 0ZM 8.36653 4L 8.36653 7.15625C 7.27365 7.42725 6.37164 8.089 5.81736 9L 4.18327 9L 4.18327 13L 5.81736 13C 6.54211 14.191 7.86768 15 9.41235 15C 10.957 15 12.2826 14.191 13.0073 13L 13.5956 13C 16.4277 13 15.7331 14.797 15.7331 16L 19.9163 16C 19.9163 11.215 17.9745 9 13.5956 9L 13.0073 9C 12.4531 8.089 11.55 7.42725 10.4582 7.15625L 10.4582 4L 8.36653 4ZM 0 6L 0 16L 1.04582 16C 2.20144 16 3.13745 15.105 3.13745 14L 3.13745 8C 3.13745 6.895 2.20144 6 1.04582 6L 0 6Z"/>
</defs>
</svg>
