<svg width="24" height="24" viewBox="0 0 24 24" version="1.1" xmlns="http://www.w3.org/2000/svg" xmlns:xlink="http://www.w3.org/1999/xlink">
<title>exit_to_app</title>
<desc>Created using Figma</desc>
<g id="Canvas" transform="translate(-13627 -2532)">
<g id="Icons/White/exit_to_app">
<g id="Icons/Dark/exit_to_app">
<g id="Shape">
<use xlink:href="#path0_fill" transform="translate(13630 2535)" fill="#FFFFFF"/>
</g>
</g>
</g>
</g>
<defs>
<path id="path0_fill" fill-rule="evenodd" d="M 7.09 12.59L 8.5 14L 13.5 9L 8.5 4L 7.09 5.41L 9.67 8L 0 8L 0 10L 9.67 10L 7.09 12.59ZM 16 0L 2 0C 0.89 0 0 0.9 0 2L 0 6L 2 6L 2 2L 16 2L 16 16L 2 16L 2 12L 0 12L 0 16C 0 17.1 0.89 18 2 18L 16 18C 17.1 18 18 17.1 18 16L 18 2C 18 0.9 17.1 0 16 0Z"/>
</defs>
</svg>
