<svg width="24" height="24" viewBox="0 0 24 24" version="1.1" xmlns="http://www.w3.org/2000/svg" xmlns:xlink="http://www.w3.org/1999/xlink">
<title>power</title>
<desc>Created using Figma</desc>
<g id="Canvas" transform="translate(-13363 -2884)">
<g id="Icons/White/power">
<g id="Icon">
<use xlink:href="#path0_fill" transform="translate(13366 2887)" fill="#FFFFFF"/>
</g>
</g>
</g>
<defs>
<path id="path0_fill" fill-rule="evenodd" d="M 10 0L 8 0L 8 10L 10 10L 10 0ZM 14.83 2.16998L 13.41 3.58998C 14.99 4.85998 16 6.80998 16 8.99998C 16 12.87 12.87 16 9 16C 5.13 16 2 12.87 2 8.99998C 2 6.80998 3.01 4.85998 4.58 3.57998L 3.17 2.16998C 1.23 3.81998 0 6.25998 0 8.99998C 0 13.97 4.03 18 9 18C 13.97 18 18 13.97 18 8.99998C 18 6.25998 16.77 3.81998 14.83 2.16998Z"/>
</defs>
</svg>
