<svg width="24" height="24" viewBox="0 0 24 24" version="1.1" xmlns="http://www.w3.org/2000/svg" xmlns:xlink="http://www.w3.org/1999/xlink">
<title>print</title>
<desc>Created using Figma</desc>
<g id="Canvas" transform="translate(-13451 -2620)">
<g id="Icons/White/print">
<g id="Icons/Dark/print">
<g id="Shape">
<use xlink:href="#path0_fill" transform="translate(13453 2623)" fill="#FFFFFF"/>
</g>
</g>
</g>
</g>
<defs>
<path id="path0_fill" fill-rule="evenodd" d="M 17 5L 3 5C 1.34 5 0 6.34 0 8L 0 14L 4 14L 4 18L 16 18L 16 14L 20 14L 20 8C 20 6.34 18.66 5 17 5ZM 14 16L 6 16L 6 11L 14 11L 14 16ZM 17 9C 16.45 9 16 8.55 16 8C 16 7.45 16.45 7 17 7C 17.55 7 18 7.45 18 8C 18 8.55 17.55 9 17 9ZM 16 0L 4 0L 4 4L 16 4L 16 0Z"/>
</defs>
</svg>
