<svg width="24" height="24" viewBox="0 0 24 24" version="1.1" xmlns="http://www.w3.org/2000/svg" xmlns:xlink="http://www.w3.org/1999/xlink">
<title>settings</title>
<desc>Created using Figma</desc>
<g id="Canvas" transform="translate(-13627 -2620)">
<g id="Icons/White/settings">
<g id="Icons/Dark/settings">
<g id="Shape">
<use xlink:href="#path0_fill" transform="translate(13629.3 2622)" fill="#FFFFFF"/>
</g>
</g>
</g>
</g>
<defs>
<path id="path0_fill" fill-rule="evenodd" d="M 17.1593 10.98C 17.1993 10.66 17.2293 10.34 17.2293 10C 17.2293 9.66 17.1993 9.34 17.1593 9.02L 19.2693 7.37C 19.4593 7.22 19.5093 6.95 19.3893 6.73L 17.3893 3.27C 17.2693 3.05 16.9993 2.97 16.7793 3.05L 14.2893 4.05C 13.7693 3.65 13.2093 3.32 12.5993 3.07L 12.2193 0.42C 12.1893 0.18 11.9793 0 11.7293 0L 7.72933 0C 7.47933 0 7.26933 0.18 7.23933 0.42L 6.85933 3.07C 6.24933 3.32 5.68933 3.66 5.16933 4.05L 2.67933 3.05C 2.44933 2.96 2.18933 3.05 2.06933 3.27L 0.0693316 6.73C -0.0606684 6.95 -0.000668393 7.22 0.189332 7.37L 2.29933 9.02C 2.25933 9.34 2.22933 9.67 2.22933 10C 2.22933 10.33 2.25933 10.66 2.29933 10.98L 0.189332 12.63C -0.000668393 12.78 -0.0506684 13.05 0.0693316 13.27L 2.06933 16.73C 2.18933 16.95 2.45933 17.03 2.67933 16.95L 5.16933 15.95C 5.68933 16.35 6.24933 16.68 6.85933 16.93L 7.23933 19.58C 7.26933 19.82 7.47933 20 7.72933 20L 11.7293 20C 11.9793 20 12.1893 19.82 12.2193 19.58L 12.5993 16.93C 13.2093 16.68 13.7693 16.34 14.2893 15.95L 16.7793 16.95C 17.0093 17.04 17.2693 16.95 17.3893 16.73L 19.3893 13.27C 19.5093 13.05 19.4593 12.78 19.2693 12.63L 17.1593 10.98ZM 9.72949 13.5C 7.79949 13.5 6.22949 11.93 6.22949 10C 6.22949 8.07 7.79949 6.5 9.72949 6.5C 11.6595 6.5 13.2295 8.07 13.2295 10C 13.2295 11.93 11.6595 13.5 9.72949 13.5Z"/>
</defs>
</svg>
