<svg width="24" height="24" viewBox="0 0 24 24" version="1.1" xmlns="http://www.w3.org/2000/svg" xmlns:xlink="http://www.w3.org/1999/xlink">
<title>credit_card</title>
<desc>Created using Figma</desc>
<g id="Canvas" transform="translate(-13407 -2532)">
<g id="Icons/White/credit_card">
<g id="Icons/Dark/credit_card">
<g id="Shape">
<use xlink:href="#path0_fill" transform="translate(13409 2536)" fill="#FFFFFF"/>
</g>
</g>
</g>
</g>
<defs>
<path id="path0_fill" fill-rule="evenodd" d="M 18 0L 2 0C 0.89 0 0.01 0.89 0.01 2L 0 14C 0 15.11 0.89 16 2 16L 18 16C 19.11 16 20 15.11 20 14L 20 2C 20 0.89 19.11 0 18 0ZM 18 14L 2 14L 2 8L 18 8L 18 14ZM 18 4L 2 4L 2 2L 18 2L 18 4Z"/>
</defs>
</svg>
