<svg width="24" height="24" viewBox="0 0 24 24" version="1.1" xmlns="http://www.w3.org/2000/svg" xmlns:xlink="http://www.w3.org/1999/xlink">
<title>icon-ignore-grey</title>
<desc>Created using Figma</desc>
<g id="Canvas" transform="translate(-6288 -183)">
<g id="icon-ignore-grey">
<g id="Icon">
<use xlink:href="#path0_fill" transform="translate(6289 186)" fill="#808080"/>
</g>
</g>
</g>
<defs>
<path id="path0_fill" fill-rule="evenodd" d="M 11 4C 13.76 4 16 6.24 16 9C 16 9.65 15.87 10.26 15.64 10.83L 18.56 13.75C 20.07 12.49 21.26 10.86 21.99 9C 20.26 4.61 15.99 1.5 10.99 1.5C 9.59001 1.5 8.25001 1.75 7.01001 2.2L 9.17001 4.36C 9.74001 4.13 10.35 4 11 4ZM 1 1.27L 3.28 3.55L 3.74 4.01C 2.08 5.3 0.78 7.02 0 9C 1.73 13.39 6 16.5 11 16.5C 12.55 16.5 14.03 16.2 15.38 15.66L 15.8 16.08L 18.73 19L 20 17.73L 2.27 0L 1 1.27ZM 6.53 6.80005L 8.08 8.35005C 8.03 8.56005 8 8.78005 8 9.00005C 8 10.66 9.34 12 11 12C 11.22 12 11.44 11.97 11.65 11.92L 13.2 13.47C 12.53 13.8 11.79 14 11 14C 8.24 14 6 11.76 6 9.00005C 6 8.21005 6.2 7.47005 6.53 6.80005ZM 10.84 6.02001L 13.99 9.17001L 14.01 9.01001C 14.01 7.35001 12.67 6.01001 11.01 6.01001L 10.84 6.02001Z"/>
</defs>
</svg>
