<svg width="66" height="48" viewBox="0 0 66 48" version="1.1" xmlns="http://www.w3.org/2000/svg" xmlns:xlink="http://www.w3.org/1999/xlink">
<title>reboot</title>
<desc>Created using Figma</desc>
<g id="Canvas" transform="matrix(3 0 0 3 -18831 -660)">
<g id="Shape">
<use xlink:href="#path0_fill" transform="translate(6277 220)" fill="#FFFFFF"/>
</g>
</g>
<defs>
<path id="path0_fill" fill-rule="evenodd" d="M 18.0002 4L 14.0002 8L 17.0002 8C 17.0002 11.31 14.3102 14 11.0002 14C 9.99023 14 9.03023 13.75 8.20023 13.3L 6.74023 14.76C 7.97023 15.54 9.43023 16 11.0002 16C 15.4202 16 19.0002 12.42 19.0002 8L 22.0002 8L 18.0002 4ZM 5 8C 5 4.69 7.69 2 11 2C 12.01 2 12.97 2.25 13.8 2.7L 15.26 1.24C 14.03 0.46 12.57 0 11 0C 6.58 0 3 3.58 3 8L 0 8L 4 12L 8 8L 5 8Z"/>
</defs>
</svg>
